<svg width="240" height="42" viewBox="0 0 240 42" fill="none" xmlns="http://www.w3.org/2000/svg">
<g clip-path="url(#clip0_9_32224)">
<circle cx="19.9999" cy="21" r="17.7465" fill="#5178FF"/>
<path d="M19.9995 13.5017V27.9207" stroke="#FFFDF9" stroke-width="2.25352" stroke-linecap="round" stroke-linejoin="round"/>
<path d="M12.6792 20.7112H27.32" stroke="#FFFDF9" stroke-width="2.25352" stroke-linecap="round" stroke-linejoin="round"/>
<path d="M64.008 25.696H55.664L54.32 29H49.7L57.54 9.764H62.16L70 29H65.352L64.008 25.696ZM62.692 22.476L59.836 15.448L56.98 22.476H62.692ZM86.9789 14.524V27.46C86.9789 28.692 86.6429 29.784 85.9709 30.736C85.3176 31.7067 84.4029 32.4627 83.2269 33.004C82.0509 33.5453 80.7069 33.816 79.1949 33.816C77.9629 33.816 76.7776 33.6387 75.6389 33.284C74.5003 32.9293 73.5576 32.4627 72.8109 31.884L74.2389 29C74.7056 29.4107 75.3309 29.7373 76.1149 29.98C76.9176 30.2413 77.7389 30.372 78.5789 30.372C79.8856 30.372 80.9309 30.092 81.7149 29.532C82.4989 28.972 82.8909 28.2253 82.8909 27.292V25.668C82.3123 26.396 81.6029 26.956 80.7629 27.348C79.9416 27.74 79.0549 27.936 78.1029 27.936C76.8896 27.936 75.7883 27.6467 74.7989 27.068C73.8283 26.4707 73.0629 25.6493 72.5029 24.604C71.9429 23.5587 71.6629 22.3733 71.6629 21.048C71.6629 19.7227 71.9429 18.5467 72.5029 17.52C73.0629 16.4747 73.8283 15.6627 74.7989 15.084C75.7883 14.4867 76.8896 14.188 78.1029 14.188C79.0549 14.188 79.9696 14.4027 80.8469 14.832C81.7243 15.2427 82.4056 15.7933 82.8909 16.484V14.524H86.9789ZM79.3909 24.492C80.4176 24.492 81.2576 24.1747 81.9109 23.54C82.5643 22.8867 82.8909 22.056 82.8909 21.048C82.8909 20.04 82.5643 19.2187 81.9109 18.584C81.2576 17.9493 80.4176 17.632 79.3909 17.632C78.3643 17.632 77.5243 17.9493 76.8709 18.584C76.2176 19.2187 75.8909 20.04 75.8909 21.048C75.8909 22.056 76.2176 22.8867 76.8709 23.54C77.5243 24.1747 78.3643 24.492 79.3909 24.492ZM105.217 14.524V27.46C105.217 28.692 104.881 29.784 104.209 30.736C103.556 31.7067 102.641 32.4627 101.465 33.004C100.289 33.5453 98.9452 33.816 97.4332 33.816C96.2012 33.816 95.0159 33.6387 93.8772 33.284C92.7386 32.9293 91.7959 32.4627 91.0492 31.884L92.4772 29C92.9439 29.4107 93.5692 29.7373 94.3532 29.98C95.1559 30.2413 95.9772 30.372 96.8172 30.372C98.1239 30.372 99.1692 30.092 99.9532 29.532C100.737 28.972 101.129 28.2253 101.129 27.292V25.668C100.551 26.396 99.8412 26.956 99.0012 27.348C98.1799 27.74 97.2932 27.936 96.3412 27.936C95.1279 27.936 94.0266 27.6467 93.0372 27.068C92.0666 26.4707 91.3012 25.6493 90.7412 24.604C90.1812 23.5587 89.9012 22.3733 89.9012 21.048C89.9012 19.7227 90.1812 18.5467 90.7412 17.52C91.3012 16.4747 92.0666 15.6627 93.0372 15.084C94.0266 14.4867 95.1279 14.188 96.3412 14.188C97.2932 14.188 98.2079 14.4027 99.0852 14.832C99.9626 15.2427 100.644 15.7933 101.129 16.484V14.524H105.217ZM97.6292 24.492C98.6559 24.492 99.4959 24.1747 100.149 23.54C100.803 22.8867 101.129 22.056 101.129 21.048C101.129 20.04 100.803 19.2187 100.149 18.584C99.4959 17.9493 98.6559 17.632 97.6292 17.632C96.6026 17.632 95.7626 17.9493 95.1092 18.584C94.4559 19.2187 94.1292 20.04 94.1292 21.048C94.1292 22.056 94.4559 22.8867 95.1092 23.54C95.7626 24.1747 96.6026 24.492 97.6292 24.492ZM113.236 17.24C113.721 16.288 114.393 15.5413 115.252 15C116.129 14.4587 117.109 14.188 118.192 14.188V17.632C116.68 17.632 115.476 18.0333 114.579 18.836C113.684 19.6387 113.236 20.7213 113.236 22.084V29H109.148V14.524H113.236V17.24ZM127.815 26.172C128.487 26.172 129.159 26.0413 129.831 25.78C130.521 25.5187 131.1 25.1733 131.567 24.744L133.863 27.096C133.228 27.768 132.351 28.3093 131.231 28.72C130.129 29.1307 129.037 29.336 127.955 29.336C126.536 29.336 125.229 29.0093 124.035 28.356C122.859 27.7027 121.925 26.7973 121.235 25.64C120.563 24.4827 120.227 23.176 120.227 21.72C120.227 20.2827 120.553 18.9947 121.207 17.856C121.879 16.7173 122.784 15.8213 123.923 15.168C125.061 14.5147 126.331 14.188 127.731 14.188C129.224 14.188 130.521 14.5333 131.623 15.224C132.724 15.9147 133.564 16.9133 134.143 18.22C134.721 19.5267 135.011 21.0667 135.011 22.84H124.119C124.305 23.848 124.725 24.66 125.379 25.276C126.032 25.8733 126.844 26.172 127.815 26.172ZM127.787 17.352C126.891 17.352 126.116 17.632 125.463 18.192C124.809 18.7333 124.371 19.4707 124.147 20.404H131.091C130.923 19.4707 130.549 18.7333 129.971 18.192C129.392 17.632 128.664 17.352 127.787 17.352ZM152.084 14.524V27.46C152.084 28.692 151.748 29.784 151.076 30.736C150.423 31.7067 149.508 32.4627 148.332 33.004C147.156 33.5453 145.812 33.816 144.3 33.816C143.068 33.816 141.883 33.6387 140.744 33.284C139.606 32.9293 138.663 32.4627 137.916 31.884L139.344 29C139.811 29.4107 140.436 29.7373 141.22 29.98C142.023 30.2413 142.844 30.372 143.684 30.372C144.991 30.372 146.036 30.092 146.82 29.532C147.604 28.972 147.996 28.2253 147.996 27.292V25.668C147.418 26.396 146.708 26.956 145.868 27.348C145.047 27.74 144.16 27.936 143.208 27.936C141.995 27.936 140.894 27.6467 139.904 27.068C138.934 26.4707 138.168 25.6493 137.608 24.604C137.048 23.5587 136.768 22.3733 136.768 21.048C136.768 19.7227 137.048 18.5467 137.608 17.52C138.168 16.4747 138.934 15.6627 139.904 15.084C140.894 14.4867 141.995 14.188 143.208 14.188C144.16 14.188 145.075 14.4027 145.952 14.832C146.83 15.2427 147.511 15.7933 147.996 16.484V14.524H152.084ZM144.496 24.492C145.523 24.492 146.363 24.1747 147.016 23.54C147.67 22.8867 147.996 22.056 147.996 21.048C147.996 20.04 147.67 19.2187 147.016 18.584C146.363 17.9493 145.523 17.632 144.496 17.632C143.47 17.632 142.63 17.9493 141.976 18.584C141.323 19.2187 140.996 20.04 140.996 21.048C140.996 22.056 141.323 22.8867 141.976 23.54C142.63 24.1747 143.47 24.492 144.496 24.492ZM162.119 14.188C163.369 14.188 164.48 14.44 165.451 14.944C166.421 15.448 167.168 16.1667 167.691 17.1C168.232 18.0147 168.503 19.0973 168.503 20.348V29H164.555V27.544C164.051 28.104 163.407 28.5427 162.623 28.86C161.857 29.1773 161.073 29.336 160.271 29.336C159.244 29.336 158.32 29.1493 157.499 28.776C156.677 28.384 156.024 27.8427 155.539 27.152C155.072 26.4427 154.839 25.6307 154.839 24.716C154.839 23.7827 155.1 22.952 155.623 22.224C156.164 21.496 156.892 20.9267 157.807 20.516C158.721 20.1053 159.729 19.9 160.831 19.9C162.081 19.9 163.323 20.152 164.555 20.656V20.348C164.555 19.508 164.275 18.8173 163.715 18.276C163.155 17.7347 162.315 17.464 161.195 17.464C160.037 17.464 158.787 17.8093 157.443 18.5L156.071 15.784C158.161 14.72 160.177 14.188 162.119 14.188ZM161.195 26.508C162.016 26.508 162.744 26.3307 163.379 25.976C164.013 25.6027 164.405 25.0893 164.555 24.436V23.12C163.603 22.7467 162.557 22.56 161.419 22.56C160.672 22.56 160.037 22.756 159.515 23.148C158.992 23.54 158.731 24.0253 158.731 24.604C158.731 25.1827 158.964 25.6493 159.431 26.004C159.897 26.34 160.485 26.508 161.195 26.508ZM180.437 28.076C180.007 28.4493 179.494 28.7573 178.897 29C178.299 29.224 177.711 29.336 177.133 29.336C175.845 29.336 174.79 28.9253 173.969 28.104C173.166 27.2827 172.765 26.2187 172.765 24.912V17.828H170.777V14.524H172.765V10.548H176.713V14.524H179.849V17.828H176.713V24.268C176.713 24.7347 176.843 25.1267 177.105 25.444C177.366 25.7427 177.683 25.892 178.057 25.892C178.337 25.892 178.598 25.8547 178.841 25.78C179.102 25.6867 179.307 25.5653 179.457 25.416L180.437 28.076ZM189.973 29.336C188.554 29.336 187.238 29 186.025 28.328C184.812 27.6373 183.85 26.7133 183.141 25.556C182.432 24.38 182.077 23.1107 182.077 21.748C182.077 20.3853 182.432 19.1253 183.141 17.968C183.85 16.8107 184.812 15.896 186.025 15.224C187.238 14.5333 188.554 14.188 189.973 14.188C191.392 14.188 192.708 14.5333 193.921 15.224C195.134 15.896 196.096 16.8107 196.805 17.968C197.514 19.1253 197.869 20.3853 197.869 21.748C197.869 23.1107 197.514 24.38 196.805 25.556C196.096 26.7133 195.134 27.6373 193.921 28.328C192.708 29 191.392 29.336 189.973 29.336ZM189.973 25.892C190.682 25.892 191.336 25.7053 191.933 25.332C192.549 24.9587 193.034 24.4547 193.389 23.82C193.744 23.1853 193.921 22.4947 193.921 21.748C193.921 21.0013 193.744 20.32 193.389 19.704C193.034 19.0693 192.549 18.5653 191.933 18.192C191.336 17.8187 190.682 17.632 189.973 17.632C189.264 17.632 188.601 17.8187 187.985 18.192C187.369 18.5653 186.884 19.0693 186.529 19.704C186.174 20.32 185.997 21.0013 185.997 21.748C185.997 22.4947 186.174 23.1853 186.529 23.82C186.884 24.4547 187.369 24.9587 187.985 25.332C188.601 25.7053 189.264 25.892 189.973 25.892ZM204.837 17.24C205.322 16.288 205.994 15.5413 206.853 15C207.73 14.4587 208.71 14.188 209.793 14.188V17.632C208.281 17.632 207.077 18.0333 206.181 18.836C205.285 19.6387 204.837 20.7213 204.837 22.084V29H200.749V14.524H204.837V17.24ZM231.105 19.34L238.161 29H233.261L228.641 22.7L224.021 29H219.205L226.261 19.424L219.205 9.764H224.105L228.725 16.064L233.345 9.764H238.161L231.105 19.34Z" fill="#0C1830"/>
</g>
<defs>
<clipPath id="clip0_9_32224">
<rect width="240" height="42" fill="white"/>
</clipPath>
</defs>
</svg>
