<svg width="280" height="280" viewBox="0 0 280 280" fill="none" xmlns="http://www.w3.org/2000/svg">
<rect width="280" height="280" fill="#002C76"/>
<g clip-path="url(#clip0_71_31731)">
<path d="M204.727 160.97C204.727 188.601 182.327 211 154.696 211V211C127.066 211 104.666 188.601 104.666 160.97V160.97C104.666 133.339 127.066 110.94 154.696 110.94H204.727V160.97Z" fill="white"/>
<path d="M75.2734 119.03C75.2734 91.3993 97.6727 69 125.304 69V69C152.934 69 175.334 91.3993 175.334 119.03V119.03C175.334 146.661 152.934 169.06 125.304 169.06H75.2734V119.03Z" fill="white"/>
<path fill-rule="evenodd" clip-rule="evenodd" d="M174.684 110.939C175.113 113.573 175.335 116.276 175.335 119.03C175.335 146.661 152.936 169.06 125.305 169.06H105.315C104.887 166.427 104.664 163.724 104.664 160.97C104.664 133.339 127.063 110.939 154.694 110.939H174.684Z" fill="#002C76"/>
</g>
<defs>
<clipPath id="clip0_71_31731">
<rect width="142" height="142" fill="white" transform="translate(69 69)"/>
</clipPath>
</defs>
</svg>
